<?xml version="1.0" encoding="UTF-8"?>
<svg version="1.1" xmlns="http://www.w3.org/2000/svg" width="1024" height="1024">
<path d="M0 0 C337.92 0 675.84 0 1024 0 C1024 337.92 1024 675.84 1024 1024 C686.08 1024 348.16 1024 0 1024 C0 686.08 0 348.16 0 0 Z " fill="#09090B" transform="translate(0,0)"/>
<path d="M0 0 C9.92281272 8.92339274 9.92281272 8.92339274 10.48046875 15.70703125 C11.37686072 39.76741059 -0.13391277 57.54983162 -13.72216797 76.50854492 C-18.99562467 83.96548608 -23.1265526 91.61988967 -26.828125 99.953125 C-27.23289062 100.83871094 -27.63765625 101.72429687 -28.0546875 102.63671875 C-30.13711588 107.47717249 -31.52061589 112.41978853 -32.828125 117.515625 C-36.97039268 133.47222036 -36.97039268 133.47222036 -43.828125 137.953125 C-52.72549713 139.6848283 -61.18127729 137.58121714 -68.828125 132.953125 C-85.76905673 120.49029298 -93.69169863 101.65995481 -97.984375 81.60546875 C-98.37106498 79.84830096 -98.75778462 78.0911397 -99.14453125 76.33398438 C-99.73850654 73.60705313 -100.33049176 70.87969992 -100.92138672 68.15209961 C-101.49996799 65.48962079 -102.0856707 62.82877788 -102.671875 60.16796875 C-102.84384399 59.36254135 -103.01581299 58.55711395 -103.19299316 57.72727966 C-107.55654835 37.96495296 -118.0417515 19.626082 -131.828125 4.953125 C-131.32023438 5.86191406 -130.81234375 6.77070312 -130.2890625 7.70703125 C-118.75612496 28.62279304 -113.28728114 50.03647421 -108.765625 73.390625 C-104.85031433 93.54236572 -99.73924486 117.59430951 -83.828125 131.953125 C-83.374375 132.48292969 -82.920625 133.01273438 -82.453125 133.55859375 C-76.6015128 140.18554457 -68.14097253 144.18217582 -59.828125 146.953125 C-56.91763719 147.12873307 -54.05263131 147.23031369 -51.140625 147.265625 C-50.36267578 147.29462891 -49.58472656 147.32363281 -48.78320312 147.35351562 C-43.00572267 147.4161572 -38.58143489 146.33840572 -33.828125 142.953125 C-31.74249944 140.64649935 -31.74249944 140.64649935 -30.453125 138.015625 C-29.99164062 137.18160156 -29.53015625 136.34757813 -29.0546875 135.48828125 C-26.91655272 131.06901542 -25.4826369 126.80191682 -24.32861328 122.01904297 C-20.05168137 104.36470256 -12.4113053 90.13895643 -1.64453125 75.62036133 C7.05185172 63.81757921 13.0971856 52.03077741 17.171875 37.953125 C17.49027344 36.91027344 17.80867188 35.86742188 18.13671875 34.79296875 C18.83126887 32.51727687 19.51043021 30.23860495 20.171875 27.953125 C41.78622771 41.18982162 62.72806886 61.75865617 78.30859375 81.59375 C79.98327543 83.71431129 81.72662619 85.70809821 83.546875 87.703125 C128.32916132 138.6622784 150.92426088 210.36282528 146.86328125 277.5703125 C145.96278636 290.27253714 144.03789224 302.55400409 141.171875 314.953125 C140.90890625 316.16226562 140.6459375 317.37140625 140.375 318.6171875 C137.29758121 331.47847548 132.04799655 343.69176906 127.171875 355.953125 C133.97893097 343.90288546 140.63606993 332.06870592 145.171875 318.953125 C145.42130859 318.2415625 145.67074219 317.53 145.92773438 316.796875 C150.11480908 304.72155831 153.12865833 292.56743394 155.171875 279.953125 C155.29046875 279.22818848 155.4090625 278.50325195 155.53125 277.75634766 C159.18631569 254.05825059 158.034938 229.12256893 154.53564453 205.5078125 C153.98848291 201.66519559 153.57920223 197.81284714 153.171875 193.953125 C156.71295438 197.24335153 158.58374324 201.08026395 160.796875 205.328125 C161.45393433 206.58701538 161.45393433 206.58701538 162.12426758 207.87133789 C174.78641316 232.52320188 184.00610686 258.71821724 189.171875 285.953125 C189.37941406 287.02949219 189.58695313 288.10585938 189.80078125 289.21484375 C193.40897248 311.34340117 191.84182506 335.12736857 187.546875 357.015625 C187.41526978 357.68843506 187.28366455 358.36124512 187.14807129 359.05444336 C178.657018 402.01932514 156.82282504 443.08001014 129.62255859 477.12158203 C128.25497232 478.84821149 126.91992333 480.59399248 125.59765625 482.35546875 C119.59917203 490.33988911 113.16527649 497.87854583 106.56542969 505.36865234 C104.90097371 507.26113996 103.25616235 509.17026161 101.609375 511.078125 C98.05732384 515.13257546 94.38406625 519.07503212 90.72119141 523.02905273 C86.87706534 527.18039626 83.0726751 531.36479752 79.30078125 535.58203125 C77.90166701 537.14031078 76.49303937 538.69011042 75.07421875 540.23046875 C53.99125461 563.22658753 35.71959763 588.30320541 23.171875 616.953125 C22.841875 616.953125 22.511875 616.953125 22.171875 616.953125 C21.851243 615.22544773 21.54102353 613.49583894 21.234375 611.765625 C20.97333984 610.32123047 20.97333984 610.32123047 20.70703125 608.84765625 C17.88453007 588.30726442 17.71800961 566.43206136 21.171875 545.953125 C21.3172168 545.07865723 21.46255859 544.20418945 21.61230469 543.30322266 C27.27975036 510.51461732 40.0787734 480.34867094 57.171875 451.953125 C24.24259819 490.22463226 8.04703026 533.69631084 7.921875 584.265625 C7.92020325 584.92411438 7.91853149 585.58260376 7.91680908 586.26104736 C7.91495374 598.81911421 8.63568121 611.30647316 9.546875 623.828125 C9.60999878 624.70046783 9.67312256 625.57281067 9.73815918 626.47158813 C10.40689043 635.55483065 11.19318919 644.62126699 12.1796875 653.67578125 C12.2944191 654.73966568 12.2944191 654.73966568 12.41146851 655.82504272 C13.05475198 661.50431204 14.03714404 667.10076389 15.08123779 672.71800232 C16.18191984 678.64863036 16.90439795 684.59961539 17.52539062 690.59790039 C17.88509926 694.39799121 17.88509926 694.39799121 19.171875 697.953125 C19.66994622 701.45320732 20.0695111 704.9609128 20.4765625 708.47265625 C21.1309598 713.22356956 22.26365958 717.84799464 23.36914062 722.51098633 C24.14949359 725.85715311 24.86954134 729.20976091 25.56640625 732.57421875 C36.06296677 788.03068075 36.06296677 788.03068075 68.859375 831.828125 C73.09386049 833.26625215 77.29265815 833.81425616 81.71484375 834.42578125 C94.908882 836.43843115 105.68494239 840.30388152 113.94140625 851.3125 C120.43872709 861.64241769 122.8696424 870.76157793 122.171875 882.953125 C116.35188669 884.8931211 109.90339474 884.66626714 103.796875 885.015625 C102.6480484 885.08240952 102.6480484 885.08240952 101.47601318 885.15054321 C89.08152741 885.85387537 76.71050282 886.14681104 64.296875 886.140625 C63.52917786 886.14144073 62.76148071 886.14225647 61.97052002 886.14309692 C29.31278234 886.13915032 29.31278234 886.13915032 21.484375 878.890625 C14.95072152 871.51622555 11.14267036 863.06597878 7.984375 853.828125 C7.32447062 851.9504323 6.66431856 850.07282662 6.00390625 848.1953125 C5.69300049 847.30062256 5.38209473 846.40593262 5.06176758 845.48413086 C4.04273948 842.58584163 2.9695013 839.71128511 1.88012695 836.83886719 C1.15900807 834.9188664 0.46552663 832.99062314 -0.22265625 831.05859375 C-6.02462173 814.30648574 -6.02462173 814.30648574 -17.8125 801.57421875 C-18.51890625 801.08050781 -19.2253125 800.58679688 -19.953125 800.078125 C-20.61570312 799.64757812 -21.27828125 799.21703125 -21.9609375 798.7734375 C-26.40731141 794.43868804 -27.35685031 788.22359437 -28.390625 782.328125 C-28.51429443 781.63082275 -28.63796387 780.93352051 -28.76538086 780.21508789 C-30.07881088 772.72161501 -31.32350286 765.21213588 -32.21875 757.65625 C-34.66768322 737.2484732 -39.76278103 717.55488956 -45.828125 697.953125 C-46.07626953 697.1477832 -46.32441406 696.34244141 -46.58007812 695.51269531 C-47.60322417 692.19958313 -48.63766069 688.89071336 -49.6875 685.5859375 C-52.9886649 675.07195339 -55.90382758 664.46569928 -58.77929688 653.828125 C-61.64252834 643.3461601 -64.94368443 633.09936868 -68.828125 622.953125 C-69.30624258 621.66724381 -69.78279148 620.38077832 -70.2578125 619.09375 C-73.27173787 610.96606708 -76.43944157 602.93323583 -79.828125 594.953125 C-80.38501655 593.61495834 -80.94093762 592.27638755 -81.49609375 590.9375 C-86.09083745 579.89141559 -90.9049009 568.94880658 -95.79125977 558.02905273 C-96.28553467 556.92376221 -96.77980957 555.81847168 -97.2890625 554.6796875 C-97.95107666 553.20363037 -97.95107666 553.20363037 -98.62646484 551.69775391 C-99.0230127 550.79202637 -99.41956055 549.88629883 -99.828125 548.953125 C-100.21540771 548.08051025 -100.60269043 547.20789551 -101.00170898 546.30883789 C-102.8583137 541.01655461 -100.49994247 535.66499421 -98.640625 530.640625 C-96.08623056 523.39267396 -94.30129586 515.99945396 -92.578125 508.515625 C-92.3200708 507.4021167 -92.0620166 506.2886084 -91.79614258 505.14135742 C-89.56501596 495.26723 -88.68322113 486.08246188 -88.765625 475.953125 C-88.77239258 474.36177734 -88.77239258 474.36177734 -88.77929688 472.73828125 C-88.79098657 470.14316902 -88.80737224 467.54817791 -88.828125 464.953125 C-90.07775362 468.99471666 -91.06272905 472.98812561 -91.8359375 477.1484375 C-95.21069058 495.25384224 -101.26613725 525.39113725 -114.828125 538.953125 C-114.42702092 544.71713926 -112.62886641 549.25380002 -110.203125 554.453125 C-109.88472656 555.154375 -109.56632813 555.855625 -109.23828125 556.578125 C-107.60534403 560.15923828 -105.93723222 563.7227725 -104.25244141 567.27978516 C-99.72506046 576.85726112 -95.5172379 586.54567805 -91.453125 596.328125 C-90.96588959 597.49900665 -90.96588959 597.49900665 -90.46881104 598.69354248 C-78.83723105 626.70473722 -67.5092071 655.34583713 -65.828125 685.953125 C-68.10003944 683.01942167 -70.07550501 679.98946066 -72.015625 676.828125 C-80.37125775 663.66538136 -90.59288829 652.3091028 -103.828125 643.953125 C-104.75367188 643.35628906 -105.67921875 642.75945313 -106.6328125 642.14453125 C-114.08386075 637.54938876 -123.83538397 631.953125 -132.828125 631.953125 C-132.29445313 632.30503906 -131.76078125 632.65695312 -131.2109375 633.01953125 C-128.74352192 634.65451424 -126.28589817 636.30368612 -123.828125 637.953125 C-122.56935547 638.78263672 -122.56935547 638.78263672 -121.28515625 639.62890625 C-115.47676969 643.54619021 -110.62789055 647.86300502 -105.828125 652.953125 C-105.003125 653.7575 -104.178125 654.561875 -103.328125 655.390625 C-84.13694132 675.06158827 -73.36032947 698.52610952 -73.53491211 726.05712891 C-73.97836158 752.68531453 -84.56191959 774.90885396 -101.828125 794.953125 C-102.45074219 795.70851563 -103.07335937 796.46390625 -103.71484375 797.2421875 C-113.55882113 808.86327235 -126.70387071 818.31719523 -139.828125 825.953125 C-140.488125 825.953125 -141.148125 825.953125 -141.828125 825.953125 C-141.828125 826.613125 -141.828125 827.273125 -141.828125 827.953125 C-140.80480072 827.97738556 -140.80480072 827.97738556 -139.76080322 828.00213623 C-133.23251991 828.16005343 -126.70493068 828.33517857 -120.1775856 828.52817917 C-116.82421966 828.62676331 -113.47109403 828.7174926 -110.1171875 828.796875 C-63.30410516 829.91814643 -63.30410516 829.91814643 -47.453125 844.703125 C-38.02568922 854.65430722 -35.828125 864.36993299 -35.828125 877.953125 C-76.088125 877.953125 -116.348125 877.953125 -157.828125 877.953125 C-158.818125 871.023125 -158.818125 871.023125 -159.828125 863.953125 C-163.60747396 852.19515045 -169.7103973 842.82691789 -180.828125 836.953125 C-182.78177075 836.20447446 -184.75216258 835.52484166 -186.73144531 834.84716797 C-195.08775661 831.94472379 -195.08775661 831.94472379 -197.34765625 828.91796875 C-198.18339153 826.24093437 -198.52282836 823.74339428 -198.828125 820.953125 C-199.20488919 818.84303793 -199.6170631 816.74141478 -200.03027344 814.63818359 C-200.43860489 812.52815675 -200.81115274 810.41415339 -201.1796875 808.296875 C-201.64520335 805.09500605 -201.64520335 805.09500605 -202.828125 802.953125 C-205.23989127 790.17649268 -205.16840236 777.2647618 -205.14379883 764.31054688 C-205.14064962 760.85514415 -205.16414049 757.40060946 -205.18945312 753.9453125 C-205.24161936 735.91334359 -204.02754512 718.03596969 -199.203125 700.578125 C-198.95151611 699.64516602 -198.69990723 698.71220703 -198.44067383 697.75097656 C-192.19389162 675.41365944 -182.7304721 654.4610843 -171.36108398 634.31030273 C-165.50129332 623.89097422 -160.99881012 613.49327626 -157.828125 601.953125 C-157.56257812 601.0353125 -157.29703125 600.1175 -157.0234375 599.171875 C-147.20814956 563.14875638 -151.99168536 529.01292823 -164.61938477 494.54101562 C-174.25908183 468.15757238 -180.2557247 442.81225044 -168.26171875 415.94140625 C-158.99133202 396.61757559 -146.17096452 380.97047456 -131.86328125 365.19921875 C-129.4835107 362.57279252 -127.13738793 359.92065372 -124.81640625 357.2421875 C-123.28333042 355.47719254 -121.73634765 353.72427073 -120.18359375 351.9765625 C-104.28231855 333.94040618 -89.83798314 314.20533735 -82.828125 290.953125 C-82.51101563 290.06625 -82.19390625 289.179375 -81.8671875 288.265625 C-75.85365901 269.28714977 -79.11829841 247.3968544 -88.078125 230.015625 C-91.21116779 224.20739536 -94.69249062 219.20324034 -99.39453125 214.51953125 C-100.828125 212.953125 -100.828125 212.953125 -100.828125 210.953125 C-101.488125 210.953125 -102.148125 210.953125 -102.828125 210.953125 C-102.828125 210.293125 -102.828125 209.633125 -102.828125 208.953125 C-64.81576358 207.89354698 -30.50945965 229.79107199 -3.78515625 254.7734375 C2.31266899 260.6778145 7.42459779 266.92062552 12.171875 273.953125 C-7.185947 242.54473831 -32.71959052 215.36587883 -67.828125 201.953125 C-68.76108398 201.5826001 -68.76108398 201.5826001 -69.71289062 201.20458984 C-86.66661098 194.64563011 -107.09432669 193.92962256 -123.96435547 201.12744141 C-124.57939941 201.39991699 -125.19444336 201.67239258 -125.828125 201.953125 C-126.48570801 202.23720215 -127.14329102 202.5212793 -127.82080078 202.81396484 C-137.28724064 206.98933696 -145.54910683 212.2963342 -153.81298828 218.46826172 C-161.03455035 223.78950481 -168.45118418 228.85079548 -175.828125 233.953125 C-177.44460938 235.07847656 -177.44460938 235.07847656 -179.09375 236.2265625 C-190.73636603 244.02234926 -203.62045083 248.26868667 -217.59375 248.25390625 C-218.50840027 248.25819138 -219.42305054 248.2624765 -220.36541748 248.26689148 C-222.29161761 248.27260553 -224.2178393 248.27315675 -226.14404297 248.26879883 C-229.05604855 248.26564888 -231.96702661 248.28910033 -234.87890625 248.31445312 C-259.53634887 248.40291908 -259.53634887 248.40291908 -268.828125 240.953125 C-269.34004395 240.56092773 -269.85196289 240.16873047 -270.37939453 239.76464844 C-272.06617084 238.47207261 -273.72952899 237.15350775 -275.390625 235.828125 C-279.54454477 232.53268198 -283.71369804 229.26541051 -287.9440918 226.06860352 C-290.59365457 224.05718436 -293.21074761 222.00629731 -295.828125 219.953125 C-296.818125 219.19128906 -297.808125 218.42945313 -298.828125 217.64453125 C-306.31611525 211.50735742 -306.31611525 211.50735742 -307.453125 206.828125 C-307.4099083 194.40332353 -295.35336306 181.91771839 -287.828125 172.953125 C-286.99023438 171.94636719 -286.15234375 170.93960938 -285.2890625 169.90234375 C-283.64512244 167.93222511 -281.99796984 165.9647828 -280.34765625 164 C-277.21074828 160.2065299 -274.17388784 156.34169375 -271.15771484 152.4519043 C-268.63698059 149.21254355 -266.06838904 146.02901257 -263.41796875 142.89453125 C-252.83930153 130.32985916 -246.40432362 119.2248534 -247.48486328 102.36083984 C-248.29131191 96.70422789 -250.79172005 91.5956396 -253.19921875 86.46484375 C-256.72223393 78.86966234 -257.25167534 70.14040357 -255.02734375 62.03515625 C-253.75453454 58.93405064 -252.31482947 55.95786963 -250.828125 52.953125 C-250.17379387 51.50858145 -249.52439621 50.06179704 -248.87890625 48.61328125 C-241.80716985 32.93134431 -233.5298303 17.69121321 -221.828125 4.953125 C-221.35681152 4.43943359 -220.88549805 3.92574219 -220.39990234 3.39648438 C-212.65493404 -4.94463128 -204.44425175 -11.95788951 -194.828125 -18.046875 C-194.17279785 -18.46565918 -193.5174707 -18.88444336 -192.84228516 -19.31591797 C-180.29948416 -27.17861378 -167.03566831 -32.0354236 -152.828125 -36.046875 C-152.09384277 -36.2545752 -151.35956055 -36.46227539 -150.60302734 -36.67626953 C-105.91953867 -48.6425056 -35.97912457 -28.18746702 0 0 Z " fill="#FCCD00" transform="translate(702.828125,70.046875)"/>
<path d="M0 0 C5.04529879 0.2170021 7.72055879 3.13651447 11.125 6.5 C12.28404787 7.6092949 13.44553801 8.71604324 14.609375 9.8203125 C15.47079102 10.63870605 15.47079102 10.63870605 16.34960938 11.47363281 C18.60227884 13.55701883 20.97188878 15.4683399 23.375 17.375 C26.66549098 19.99002363 29.76638965 22.70105378 32.7734375 25.6328125 C33.43166504 26.27041504 34.08989258 26.90801758 34.76806641 27.56494141 C36.06159456 28.82787613 37.3432052 30.10316719 38.61083984 31.39208984 C41.47306244 34.18022957 43.48781683 35.82907166 47.32421875 37.109375 C52.32743875 36.96050129 56.40124946 35.48106812 61.0625 33.75 C62.94755534 33.09286503 64.83428337 32.44050862 66.72265625 31.79296875 C67.63289551 31.48020996 68.54313477 31.16745117 69.48095703 30.84521484 C87.70611961 24.73012347 107.76790909 24.66911699 125.3125 32.75 C129.83231322 35.11303142 133.07106284 37.71362673 136.4921875 41.45703125 C143.53794564 48.66706872 155.69807177 47.26695458 164.9375 47.5625 C166.19369141 47.60568359 167.44988281 47.64886719 168.74414062 47.69335938 C171.82932968 47.79893619 174.91459263 47.90104551 178 48 C184.31865889 61.45400483 187.34604482 73.02323815 187.5 87.875 C187.51844971 88.92059082 187.53689941 89.96618164 187.5559082 91.04345703 C187.41253791 108.91506059 175.59391524 121.53078557 163.9453125 133.86328125 C149.11545096 149.5771378 138.61977576 166.05996649 133.6875 187.25 C133.51557129 187.9826709 133.34364258 188.7153418 133.16650391 189.47021484 C128.66339732 210.38589798 138.61878142 231.11061116 146.35839844 250.1003418 C155.32717538 272.17061134 162.65231418 293.49752465 162.4375 317.5625 C162.43412628 318.30090118 162.43075256 319.03930237 162.42727661 319.80007935 C162.25850745 345.43332002 155.89011983 367.40884779 144.02929688 390.02636719 C142.25138976 393.43542817 140.53208183 396.87374296 138.8125 400.3125 C138.47629639 400.98418213 138.14009277 401.65586426 137.79370117 402.34790039 C135.05648962 407.83928268 132.47337897 413.38454352 130 419 C129.55269531 419.97066406 129.10539062 420.94132812 128.64453125 421.94140625 C121.39023674 438.10311868 115.33640495 455.58324346 112 473 C111.77787842 474.12196777 111.77787842 474.12196777 111.55126953 475.26660156 C108.77667694 490.12217048 108.68501297 505.06447351 108.625 520.125 C108.61321716 521.57280853 108.61321716 521.57280853 108.60119629 523.04986572 C108.48243332 541.83155183 109.99898284 560.58292287 115.34716797 578.66943359 C115.83614997 580.41506641 116.2811365 582.17312543 116.70361328 583.93603516 C119.0822287 596.34714384 119.0822287 596.34714384 125.80273438 606.46044922 C129.16283925 608.10018698 132.53527328 608.77047242 136.20703125 609.35546875 C143.79181723 610.64433557 148.61828584 615.99079201 153 622 C157.33268103 629.27271458 157 635.55168913 157 644 C143.8 644 130.6 644 117 644 C116.34 639.71 115.68 635.42 115 631 C110.6792195 621.32968174 105.81927702 614.7199992 95.8125 610.75 C95.01457031 610.47671875 94.21664063 610.2034375 93.39453125 609.921875 C86.67844804 607.33623774 86.67844804 607.33623774 84.83740234 603.71020508 C84.58941895 602.82228271 84.34143555 601.93436035 84.0859375 601.01953125 C83.80121582 600.02767822 83.51649414 599.0358252 83.22314453 598.01391602 C82.94325684 596.95744873 82.66336914 595.90098145 82.375 594.8125 C82.07577637 593.73347412 81.77655273 592.65444824 81.46826172 591.54272461 C71.68606887 555.52890821 72.39311823 517.76730403 77 481 C77.11214844 480.05898438 77.22429687 479.11796875 77.33984375 478.1484375 C79.44182135 460.76170918 83.31926394 443.41294716 90.1171875 427.23046875 C91.12267304 425.08986432 91.12267304 425.08986432 91 423 C75.97102749 446.1236213 66.56709031 470.39301662 63.26635742 497.84765625 C63.02805331 499.77331077 62.73628466 501.69217342 62.4375 503.609375 C61.62512019 510.19641447 61.80241317 516.87286174 61.8125 523.5 C61.81310425 524.22998199 61.8137085 524.95996399 61.81433105 525.71206665 C61.86084726 546.49772077 63.69177989 566.64446377 68 587 C68.15726562 587.75812988 68.31453125 588.51625977 68.4765625 589.29736328 C69.45810812 593.92955159 70.64162157 598.46067064 72 603 C72.33773438 604.20785156 72.67546875 605.41570313 73.0234375 606.66015625 C75.13011461 612.74483924 75.13011461 612.74483924 79.72412109 617.03759766 C83.12816259 618.5683644 86.6329697 619.66514174 90.19921875 620.75 C96.99821136 622.83438677 100.67523866 626.82699064 104.1395874 632.94215393 C105.65020205 636.55508617 105.42174171 640.08321972 105.25 643.9375 C105.23195313 644.71673828 105.21390625 645.49597656 105.1953125 646.29882812 C105.14866383 648.19976131 105.07693829 650.10005169 105 652 C98.00753237 652.10167676 91.01525642 652.17158171 84.0222168 652.21972656 C81.64486568 652.23980363 79.2675637 652.26707113 76.89038086 652.30175781 C73.46716155 652.35044614 70.04459694 652.37300853 66.62109375 652.390625 C65.56353378 652.41127014 64.50597382 652.43191528 63.41636658 652.45318604 C56.20708093 652.45536303 51.54262282 651.49517698 46.25 646.2734375 C31.31513318 623.59110852 24.98953493 591.7779674 17 566 C16.78182617 565.30229492 16.56365234 564.60458984 16.33886719 563.88574219 C14.80276633 558.94776322 13.37227204 553.98588903 12 549 C11.60578857 547.5761499 11.60578857 547.5761499 11.20361328 546.12353516 C4.28070138 520.76585273 -2.13035882 493.30877655 -2.16796875 466.8984375 C-2.17129715 466.05890533 -2.17462555 465.21937317 -2.17805481 464.35440063 C-2.18308342 462.58799786 -2.1854644 460.82158571 -2.18530273 459.05517578 C-2.18747745 456.40250305 -2.20564465 453.75025507 -2.22460938 451.09765625 C-2.25402483 441.87283893 -1.86023779 432.97732094 -0.4309082 423.85791016 C0.07454609 420.98729055 0.07454609 420.98729055 0 418 C-1.28683707 421.68210152 -2.5512629 425.37155921 -3.8125 429.0625 C-4.16892578 430.08150391 -4.52535156 431.10050781 -4.89257812 432.15039062 C-10.16654735 447.68198807 -11.41952411 461.70310857 -11.1875 477.9375 C-11.17240962 479.79621298 -11.158729 481.65493797 -11.14648438 483.51367188 C-11.11386108 488.00941812 -11.06232553 492.50457147 -11 497 C-13.4378442 494.63469527 -15.6321129 492.30373869 -17.59375 489.53125 C-31.35316724 470.42820827 -47.62516462 454.38316434 -71.8125 449.625 C-90.34673771 447.24378006 -108.43599922 449.88673471 -126 456 C-125.4121875 455.855625 -124.824375 455.71125 -124.21875 455.5625 C-116.7240685 454.01187624 -109.44882639 453.80783802 -101.8125 453.8125 C-100.28109375 453.8115332 -100.28109375 453.8115332 -98.71875 453.81054688 C-89.1483246 453.87881839 -80.81219199 454.62721824 -71.8125 458 C-70.99023926 458.30687744 -70.16797852 458.61375488 -69.32080078 458.92993164 C-49.02166999 466.85034079 -32.65460075 482.45955057 -23 502 C-14.7823946 521.25267551 -10.18397105 546.83851189 -18 567 C-18.23638184 567.6177832 -18.47276367 568.23556641 -18.71630859 568.87207031 C-22.13836878 577.65724876 -26.04752549 585.61789187 -32 593 C-32.56976563 593.7321875 -33.13953125 594.464375 -33.7265625 595.21875 C-40.6009567 603.52652853 -49.62928894 610.67051838 -59 616 C-55.62399363 617.68800319 -51.78987039 617.17966805 -48.07421875 617.2109375 C-46.22590324 617.2390479 -44.37759609 617.26771253 -42.52929688 617.296875 C-39.62459933 617.33781026 -36.72005087 617.37470119 -33.81518555 617.40136719 C-3.31109652 617.70549046 -3.31109652 617.70549046 7 627 C12.17019579 632.77138134 14.14018932 636.84087841 14.0625 644.6875 C14.05347656 645.86699219 14.04445313 647.04648437 14.03515625 648.26171875 C14.02355469 649.16535156 14.01195312 650.06898438 14 651 C-5.51692967 651.07050736 -25.033833 651.12319036 -44.55086422 651.15543652 C-53.61574025 651.170816 -62.68053654 651.19173176 -71.74536133 651.22631836 C-79.65882334 651.25649722 -87.57222752 651.27563952 -95.48574549 651.28226548 C-99.66449411 651.28613026 -103.84307748 651.29501929 -108.02177238 651.31719017 C-174.6001403 651.65609863 -174.6001403 651.65609863 -191 640 C-189.125 635.25 -189.125 635.25 -188 633 C-188.96486328 632.86537354 -188.96486328 632.86537354 -189.94921875 632.72802734 C-228.71771575 627.17683207 -263.69756242 607.55661343 -287.57324219 575.91503906 C-294.42670932 566.39326607 -300.17949828 556.46299161 -305.12524414 545.8347168 C-306.04785738 543.89962372 -307.03675375 542.0065465 -308.02734375 540.10546875 C-310.16308872 535.8463301 -311.66030882 531.48394176 -313.0625 526.9375 C-313.31926514 526.11403076 -313.57603027 525.29056152 -313.84057617 524.44213867 C-325.21561028 487.03709639 -322.01274321 445.74000862 -303.953125 410.98535156 C-295.49668299 395.51605793 -284.76478129 381.09245751 -273 368 C-272.26539551 367.17564453 -271.53079102 366.35128906 -270.77392578 365.50195312 C-265.44944499 359.60155707 -259.96693586 353.90554061 -254.3125 348.3203125 C-253.3002108 347.31974571 -253.3002108 347.31974571 -252.26747131 346.29896545 C-249.48250402 343.55041986 -246.69496743 340.80463489 -243.89746094 338.06884766 C-225.27175155 320.14238966 -225.27175155 320.14238966 -211.75 298.375 C-211.43546875 297.66085937 -211.1209375 296.94671875 -210.796875 296.2109375 C-207.60205558 287.34687969 -207.88537537 277.70434997 -211.81640625 269.17578125 C-217.99635675 257.81527819 -230.22076962 252.07504395 -242 248 C-256.48855741 243.76386888 -272.02092181 244.2748594 -287 244 C-276.96526487 233.17498353 -263.21456068 230.36733992 -249.046875 229.7265625 C-227.58093273 229.14459965 -207.15608691 233.12874767 -190.5 247.4375 C-176.40583066 261.08757445 -171.219503 275.80911171 -170.5625 295.125 C-170.87270154 305.99446204 -174.08397399 315.71027623 -178.8125 325.375 C-179.11929688 326.0045459 -179.42609375 326.6340918 -179.7421875 327.28271484 C-184.22544907 335.9520177 -190.78890854 343.06860728 -197.5 350.0625 C-198.91277536 351.55206916 -200.32553541 353.04165284 -201.73828125 354.53125 C-203.81955598 356.71599786 -205.90295555 358.89864511 -207.98974609 361.078125 C-231.99509143 386.17158298 -253.6190764 414.00035625 -263 448 C-263.33773437 449.12148438 -263.67546875 450.24296875 -264.0234375 451.3984375 C-270.48786412 476.84099732 -266.62809636 506.20755701 -256 530 C-255.70609375 530.65806641 -255.4121875 531.31613281 -255.109375 531.99414062 C-250.28465902 542.57376147 -244.50340029 554.49659971 -236.20703125 562.79296875 C-235 564 -235 564 -235 566 C-234.01 566.33 -233.02 566.66 -232 567 C-231.42121094 567.72960937 -230.84242188 568.45921875 -230.24609375 569.2109375 C-227.52977406 572.58389795 -224.48274845 575.00124777 -221.0625 577.625 C-220.15081055 578.34042969 -220.15081055 578.34042969 -219.22070312 579.0703125 C-215.93112336 581.62532591 -212.6343064 583.94492731 -209 586 C-209.50789063 585.16339844 -210.01578125 584.32679688 -210.5390625 583.46484375 C-215.23581156 575.5842077 -219.13434126 567.62608443 -222.2734375 558.98925781 C-222.76218651 557.65111032 -223.26242138 556.317108 -223.7734375 554.98730469 C-231.63878091 534.47705893 -233.37083644 513.96377136 -233.5 492.1875 C-233.51053406 491.28709991 -233.52106812 490.38669983 -233.53192139 489.45901489 C-233.92412718 446.08866161 -215.30789692 406.32403172 -185.46289062 375.40771484 C-172.20216212 362.04834573 -156.40339938 351.13093863 -140 342 C-139.10087891 341.49581543 -138.20175781 340.99163086 -137.27539062 340.47216797 C-126.28271719 334.33248954 -115.30528644 328.46076219 -103.69140625 323.58984375 C-99.18435993 321.68644592 -94.84484124 319.47733703 -90.48803711 317.25610352 C-86.51321787 315.23733768 -82.51455524 313.28817939 -78.4765625 311.3984375 C-46.48150739 296.42265227 -12.84789693 276.6945128 -0.125 241.6875 C0.60186167 239.46430585 1.31175245 237.23544972 2 235 C2.30679687 234.07058594 2.61359375 233.14117188 2.9296875 232.18359375 C11.23428383 206.28116236 4.25796139 177.74973276 -1.2890625 151.9609375 C-3.46739558 141.57905469 -4.39903469 131.55972407 -4.5 120.9375 C-4.51853027 119.74793701 -4.53706055 118.55837402 -4.55615234 117.33276367 C-4.50374751 109.98221507 -3.36565759 103.8555291 -0.85742188 96.93969727 C0.23490632 93.19461646 0.68158373 89.73336775 -0.76953125 86.04296875 C-1.11371094 85.43066406 -1.45789063 84.81835938 -1.8125 84.1875 C-11.53620332 62.94068919 -10.3675511 26.27735604 -2.45703125 4.5703125 C-1 1 -1 1 0 0 Z " fill="#FCCD00" transform="translate(374,307)"/>
<path d="M0 0 C1.53627218 3.07254437 0.60339705 5.5383571 0.07421875 8.90234375 C-0.14797958 10.36780927 -0.36997676 11.83330531 -0.59179688 13.29882812 C-0.94344679 15.57295842 -1.29809813 17.84653918 -1.65795898 20.11938477 C-5.6832551 45.73043963 -6.33171019 71.30908038 -6.26074219 97.17700195 C-6.24939526 101.33666329 -6.25611225 105.49606733 -6.2676096 109.65571976 C-6.33308414 137.50697 -5.26605367 165.12389171 -1.87768555 192.796875 C-1.55595145 195.42856518 -1.24881551 198.06168754 -0.94335938 200.6953125 C1.08154383 217.89053036 3.85965609 234.6824384 8.25 251.4375 C8.44697479 252.19592194 8.64394958 252.95434387 8.84689331 253.73574829 C18.00531494 290.50078628 18.00531494 290.50078628 42 318 C45.81318649 319.86839192 49.42591758 320.41575436 53.58691406 320.93652344 C64.77325149 322.35301824 75.45982795 324.99821928 83.33984375 333.69140625 C91.27570104 344.72691604 95.43283512 355.36569364 95 369 C90.7742557 370.02390876 86.67507763 370.15426302 82.3515625 370.16113281 C81.59808533 370.16609772 80.84460815 370.17106262 80.06829834 370.17617798 C77.58718947 370.19072892 75.10614444 370.19758819 72.625 370.203125 C70.89534504 370.20888033 69.1656901 370.21463802 67.43603516 370.22039795 C63.81477563 370.23088645 60.19353819 370.23674382 56.57226562 370.24023438 C51.93518487 370.24572806 47.2983964 370.26978369 42.66140747 370.29820633 C39.090893 370.3168357 35.5204491 370.32203837 31.94989014 370.32357025 C30.24027908 370.3265944 28.53066919 370.33461492 26.82110596 370.34775543 C24.42998969 370.3648296 22.03959016 370.36293311 19.6484375 370.35644531 C18.9449115 370.3656601 18.2413855 370.37487488 17.51654053 370.3843689 C13.17019935 370.34746764 10.46632014 369.6417197 7 367 C1.91312505 359.96834494 -0.88153961 351.46560906 -3.8125 343.375 C-6.78785328 335.40931745 -9.88238704 327.64021053 -13.875 320.125 C-14.41024292 319.11058838 -14.41024292 319.11058838 -14.95629883 318.07568359 C-18.35295858 311.90998163 -21.3555164 308.95683121 -27.9375 306.5 C-33.7606646 304.32091439 -37.81043454 302.49720194 -40.57421875 296.6953125 C-42.71085294 290.20605351 -44.20726864 283.51163578 -45.8125 276.875 C-51.10594441 255.08414572 -57.231489 233.57976208 -63.75 212.125 C-64.46093203 209.7779364 -65.17178735 207.43084957 -65.88256836 205.08374023 C-72.39312022 183.61055155 -79.06710552 162.19325658 -85.875 140.8125 C-86.15553223 139.92957275 -86.43606445 139.04664551 -86.72509766 138.13696289 C-87.90872441 134.41354543 -89.09829675 130.69275794 -90.31640625 126.98046875 C-90.68636719 125.83191406 -91.05632813 124.68335938 -91.4375 123.5 C-91.74558594 122.5615625 -92.05367187 121.623125 -92.37109375 120.65625 C-93.12748515 117.46155339 -93.48663975 115.27450816 -93 112 C-91.35528341 109.35220177 -89.30955377 107.14835411 -87.1875 104.875 C-86.30106812 103.89104248 -86.30106812 103.89104248 -85.39672852 102.88720703 C-83.61143833 100.91185978 -81.80737874 98.95512638 -80 97 C-79.03522387 95.9386208 -78.07158359 94.87620739 -77.109375 93.8125 C-74.88161464 91.36326638 -72.64162007 88.92644193 -70.39013672 86.49902344 C-68.93616188 84.93116157 -67.48529203 83.3604755 -66.03515625 81.7890625 C-65.5354834 81.24765625 -65.03581055 80.70625 -64.52099609 80.1484375 C-63.50949411 79.05218367 -62.49810034 77.95582999 -61.48681641 76.859375 C-59.03417742 74.20082564 -56.57814195 71.54566259 -54.11328125 68.8984375 C-48.97074675 63.35792638 -44.02762891 57.70640592 -39.2890625 51.8125 C-37.30640693 49.37647268 -35.27564093 46.99290538 -33.21875 44.61962891 C-21.09424822 30.56983379 -10.340201 15.39206636 0 0 Z " fill="#FCCD00" transform="translate(858,533)"/>
<path d="M0 0 C0 3.74142242 -1.19309301 5.90965627 -2.75 9.3125 C-6.89488363 18.65719472 -10.56071302 28.70311319 -11 39 C-11.06316406 40.14726562 -11.12632812 41.29453125 -11.19140625 42.4765625 C-11.85309361 59.88153493 -5.73985429 75.30735778 0.265625 91.38916016 C16.22124785 134.11863188 16.22124785 134.11863188 16.125 152.125 C16.12016602 153.06351807 16.11533203 154.00203613 16.11035156 154.96899414 C15.92125219 176.84211855 9.84101525 196.14265152 -0.25 215.4375 C-0.68650879 216.2730542 -1.12301758 217.1086084 -1.57275391 217.96948242 C-4.73929766 223.86964883 -4.73929766 223.86964883 -7 225 C-6.84853516 224.27748047 -6.69707031 223.55496094 -6.54101562 222.81054688 C0.33475911 189.98296647 0.33475911 189.98296647 -7 158 C-7.40299316 157.15646973 -7.80598633 156.31293945 -8.22119141 155.44384766 C-13.73162744 144.10860194 -19.89720216 133.30290029 -26.75976562 122.73828125 C-39.06840248 103.64599991 -47.52515711 84.05562564 -43.07421875 61.01513672 C-38.32011669 40.35029524 -23.93003698 23.31081886 -9 9 C-7.32968504 7.33698963 -5.66246324 5.67085952 -4 4 C-2.66666667 2.66666667 -1.33333333 1.33333333 0 0 Z " fill="#030300" transform="translate(503,459)"/>
<path d="M0 0 C1.625 1.625 1.625 1.625 3 4 C1.77969993 9.18627531 -0.850629 13.40132676 -3.625 17.875 C-4.04523437 18.56335938 -4.46546875 19.25171875 -4.8984375 19.9609375 C-5.92692472 21.64391658 -6.962721 23.32242532 -8 25 C-9 23 -9 23 -8.39501953 20.98461914 C-8.06099121 20.17629639 -7.72696289 19.36797363 -7.3828125 18.53515625 C-7.02316406 17.65279297 -6.66351562 16.77042969 -6.29296875 15.86132812 C-5.90753906 14.93771484 -5.52210938 14.01410156 -5.125 13.0625 C-4.37704508 11.2411149 -3.62962619 9.41950957 -2.8828125 7.59765625 C-2.54652832 6.78820557 -2.21024414 5.97875488 -1.86376953 5.14477539 C-1.18237503 3.45284472 -0.57679527 1.73038581 0 0 Z " fill="#2F2B00" transform="translate(838,402)"/>
<path d="M0 0 C0 0.66 0 1.32 0 2 C-0.845625 1.938125 -1.69125 1.87625 -2.5625 1.8125 C-5.94791295 1.99715889 -7.97093676 2.82814852 -10.98828125 4.265625 C-14.83611624 5.67027156 -18.93816052 5.76299126 -23 6 C-20.08422373 3.08422373 -16.48891465 2.43894023 -12.625 1.3125 C-11.85671875 1.07466797 -11.0884375 0.83683594 -10.296875 0.59179688 C-9.55179687 0.37201172 -8.80671875 0.15222656 -8.0390625 -0.07421875 C-7.02126709 -0.37718872 -7.02126709 -0.37718872 -5.98291016 -0.6862793 C-3.70870567 -1.04608633 -2.17622661 -0.69470212 0 0 Z " fill="#3D3201" transform="translate(269,758)"/>
<path d="M0 0 C0.33 0 0.66 0 1 0 C1.33 9.9 1.66 19.8 2 30 C0.68 28.68 -0.64 27.36 -2 26 C-1.78515625 23.3984375 -1.78515625 23.3984375 -1 20 C-0.71855219 16.5467142 -0.58809601 13.08623935 -0.4375 9.625 C-0.39431641 8.69816406 -0.35113281 7.77132812 -0.30664062 6.81640625 C-0.20123814 4.54439706 -0.09911394 2.27229075 0 0 Z " fill="#BF9801" transform="translate(361,774)"/>
<path d="M0 0 C0.66 0.33 1.32 0.66 2 1 C2 3.97 2 6.94 2 10 C-2.15626368 11.00926479 -6.04365094 11.10239579 -10.3125 11.0625 C-11.56675781 11.05347656 -12.82101562 11.04445313 -14.11328125 11.03515625 C-15.06589844 11.02355469 -16.01851562 11.01195312 -17 11 C-17 10.67 -17 10.34 -17 10 C-8.585 9.01 -8.585 9.01 0 8 C0 5.36 0 2.72 0 0 Z " fill="#E2BC03" transform="translate(951,892)"/>
<path d="M0 0 C1 2 1 2 0.1796875 4.78515625 C-0.25085938 5.86667969 -0.68140625 6.94820312 -1.125 8.0625 C-1.54007812 9.14660156 -1.95515625 10.23070312 -2.3828125 11.34765625 C-4 14 -4 14 -6.6796875 14.87109375 C-7.44539063 14.91363281 -8.21109375 14.95617187 -9 15 C-7.61219205 11.10993227 -5.7847773 8.03441292 -3.375 4.6875 C-2.74335938 3.80449219 -2.11171875 2.92148437 -1.4609375 2.01171875 C-0.97882813 1.34785156 -0.49671875 0.68398438 0 0 Z " fill="#2B2701" transform="translate(466,728)"/>
<path d="M0 0 C3.14777543 2.28929122 3.89069386 5.15962854 4.7265625 8.859375 C5.14076749 12.10200833 4.66466038 14.80963016 4 18 C3.67 18 3.34 18 3 18 C2.49490792 15.75113762 1.99610821 13.50086131 1.5 11.25 C1.2215625 9.99703125 0.943125 8.7440625 0.65625 7.453125 C0 4 0 4 0 0 Z " fill="#E3C506" transform="translate(856,264)"/>
<path d="M0 0 C1.93709638 3.25753924 2.23715445 5.65609928 2.1953125 9.421875 C2.18886719 10.44667969 2.18242188 11.47148438 2.17578125 12.52734375 C2.15902344 13.59082031 2.14226563 14.65429688 2.125 15.75 C2.11597656 16.82894531 2.10695313 17.90789063 2.09765625 19.01953125 C2.07411305 21.67991278 2.04122799 24.33984336 2 27 C1.67 27 1.34 27 1 27 C0.93941406 25.74703125 0.87882813 24.4940625 0.81640625 23.203125 C0.73197744 21.55207276 0.64733061 19.90103165 0.5625 18.25 C0.52318359 17.425 0.48386719 16.6 0.44335938 15.75 C0.40146484 14.95078125 0.35957031 14.1515625 0.31640625 13.328125 C0.27974854 12.5949707 0.24309082 11.86181641 0.20532227 11.10644531 C0.05391865 8.98157131 0.05391865 8.98157131 -0.54711914 6.90136719 C-1.14598296 4.38710764 -0.61946924 2.47787696 0 0 Z " fill="#2C2C00" transform="translate(613,531)"/>
<path d="M0 0 C0.33 0.66 0.66 1.32 1 2 C6.94 2.33 12.88 2.66 19 3 C19 3.33 19 3.66 19 4 C11.08 4 3.16 4 -5 4 C-5 3.34 -5 2.68 -5 2 C-2 0 -2 0 0 0 Z " fill="#FADE03" transform="translate(94,546)"/>
<path d="M0 0 C0.66 0.33 1.32 0.66 2 1 C0.59419724 2.65512248 -0.82506266 4.29882206 -2.25 5.9375 C-3.03890625 6.85402344 -3.8278125 7.77054688 -4.640625 8.71484375 C-6.91251033 10.91526249 -7.92319022 11.66832555 -11 12 C-7.49102731 7.81576108 -3.91939465 3.80411834 0 0 Z " fill="#E6B900" transform="translate(142,633)"/>
<path d="M0 0 C1.00186835 3.15696647 0.98848961 5.3910657 0.3125 8.625 C0.16425781 9.40101563 0.01601563 10.17703125 -0.13671875 10.9765625 C-1 13 -1 13 -3.08203125 14.2734375 C-3.71496094 14.51320313 -4.34789062 14.75296875 -5 15 C-1.92482916 4.44191344 -1.92482916 4.44191344 0 0 Z " fill="#3D3700" transform="translate(375,720)"/>
<path d="M0 0 C3.12290635 0.48578543 5.99580359 0.9986012 9 2 C9.33 2.99 9.66 3.98 10 5 C9.01 5.33 8.02 5.66 7 6 C5.17578125 5.0390625 5.17578125 5.0390625 3.3125 3.625 C2.68988281 3.16351562 2.06726563 2.70203125 1.42578125 2.2265625 C0.95527344 1.82179688 0.48476563 1.41703125 0 1 C0 0.67 0 0.34 0 0 Z " fill="#2A2100" transform="translate(569,701)"/>
<path d="M0 0 C0 3.44360632 -0.79591532 4.74795392 -2.5 7.6875 C-2.9640625 8.49574219 -3.428125 9.30398438 -3.90625 10.13671875 C-4.44765625 11.05904297 -4.44765625 11.05904297 -5 12 C-5.66 10.68 -6.32 9.36 -7 8 C-4.69 5.36 -2.38 2.72 0 0 Z " fill="#413701" transform="translate(760,521)"/>
<path d="M0 0 C3.63559661 3.43361902 6.36113346 6.7973607 9 11 C8.67 11.66 8.34 12.32 8 13 C6.6578508 11.40320196 5.32652885 9.79729803 4 8.1875 C2.88625 6.84751953 2.88625 6.84751953 1.75 5.48046875 C0 3 0 3 0 0 Z " fill="#523F00" transform="translate(707,332)"/>
<path d="M0 0 C0.66 0.33 1.32 0.66 2 1 C1.195625 1.61875 0.39125 2.2375 -0.4375 2.875 C-3.03874519 4.74164041 -3.03874519 4.74164041 -4 7 C-5.32 7 -6.64 7 -8 7 C-8 6.34 -8 5.68 -8 5 C-6.3203125 3.67578125 -6.3203125 3.67578125 -4.125 2.3125 C-3.40570312 1.85488281 -2.68640625 1.39726563 -1.9453125 0.92578125 C-1.30335938 0.62027344 -0.66140625 0.31476562 0 0 Z " fill="#2D2801" transform="translate(569,891)"/>
<path d="M0 0 C0.66 0.66 1.32 1.32 2 2 C-0.31 4.31 -2.62 6.62 -5 9 C-5.66 8.67 -6.32 8.34 -7 8 C-4.69 5.36 -2.38 2.72 0 0 Z " fill="#E2B300" transform="translate(186,685)"/>
<path d="M0 0 C2.2477975 2.05233685 3.0022242 3.00667261 4 6 C0.34683329 4.75023244 -0.78065836 4.32901247 -3 1 C-2.01 0.67 -1.02 0.34 0 0 Z " fill="#292100" transform="translate(162,888)"/>
<path d="M0 0 C2.64752004 2.57784846 4.94432065 4.91648098 7 8 C6.34 8.66 5.68 9.32 5 10 C4.16121545 8.71186658 3.32913217 7.41936744 2.5 6.125 C2.0359375 5.40570313 1.571875 4.68640625 1.09375 3.9453125 C0 2 0 2 0 0 Z " fill="#4D3C00" transform="translate(570,74)"/>
</svg>
