<?xml version="1.0" encoding="UTF-8"?>
<svg version="1.1" xmlns="http://www.w3.org/2000/svg" width="267" height="251">
<path d="M0 0 C88.11 0 176.22 0 267 0 C267 82.83 267 165.66 267 251 C178.89 251 90.78 251 0 251 C0 168.17 0 85.34 0 0 Z " fill="#F5F5F5" transform="translate(0,0)"/>
<path d="M0 0 C1.10472656 0.35320313 2.20945312 0.70640625 3.34765625 1.0703125 C16.60936649 5.5048276 16.60936649 5.5048276 21 10 C22.7997551 19.81684602 16.47275891 28.13666869 11.5859375 36.203125 C10.13751546 38.75748506 9.05617578 41.26750853 8 44 C7 45 7 45 4.25 45.375 C1 45 1 45 -1.625 43.0625 C-6.63185707 36.60628957 -8.38787274 29.6798813 -10.20703125 21.8203125 C-11.2624094 18.06670155 -12.86254277 15.24303855 -15 12 C-14.12828965 14.8766948 -14.12828965 14.8766948 -12.99560547 16.93237305 C-11.99102094 19.0186473 -11.50381582 20.81449584 -11.0703125 23.08203125 C-10.83634766 24.23348633 -10.83634766 24.23348633 -10.59765625 25.40820312 C-10.28505909 26.99831515 -9.97767819 28.58946241 -9.67578125 30.18164062 C-8.41936594 36.29517366 -6.51088332 41.22009346 -2.25 45.9375 C1.37725938 47.65037249 3.99996078 47.4444488 8 47 C10.46706859 44.37947739 11.6271021 41.67383378 12.8125 38.3125 C14.54955953 33.76942122 16.81860131 30.08230016 19.60546875 26.1171875 C21.52360469 23.20505955 22.75529617 20.25006 24 17 C28.42456779 19.74583472 32.00430481 22.74499081 35.5 26.625 C35.97775879 27.15424072 36.45551758 27.68348145 36.94775391 28.22875977 C45.87453511 38.34770212 52.68606161 51.29135705 53 65 C53.05027344 66.20527344 53.10054688 67.41054687 53.15234375 68.65234375 C53.41443427 77.52797491 52.42560964 85.40353889 50 94 C49.66251623 95.33228886 49.32734761 96.6651845 49 98 C49.81542431 95.91780951 50.62723189 93.83420239 51.4375 91.75 C51.88996094 90.58984375 52.34242188 89.4296875 52.80859375 88.234375 C54.35228091 84.04364395 55.12594535 80.4778519 55.31640625 76.015625 C55.35830078 75.08105469 55.40019531 74.14648438 55.44335938 73.18359375 C55.48267578 72.21550781 55.52199219 71.24742188 55.5625 70.25 C55.62727539 68.77466797 55.62727539 68.77466797 55.69335938 67.26953125 C55.79922052 64.84648725 55.90130171 62.4233446 56 60 C58.93796855 62.7311966 59.90671465 65.02828798 61.125 68.875 C61.62386719 70.41800781 61.62386719 70.41800781 62.1328125 71.9921875 C66.7679124 88.06888535 63.46091034 103.45238341 55.7734375 118.046875 C52.59172247 123.34506126 48.85881914 128.18184549 45 133 C44.50113281 133.63035156 44.00226563 134.26070312 43.48828125 134.91015625 C40.85818579 138.15421721 37.94984054 141.05015946 35 144 C29.65452817 149.48095614 26.11095978 155.00392455 23 162 C22.34 162 21.68 162 21 162 C20.45360488 147.18662108 22.78647274 136.1664381 30 123 C27.38190431 126.13614442 25.2045329 129.15933591 23.375 132.8125 C22.97023438 133.60269531 22.56546875 134.39289063 22.1484375 135.20703125 C15.43507144 151.53375484 19.13253997 169.89739293 21.75 186.75 C21.93937134 188.00094452 21.93937134 188.00094452 22.13256836 189.27716064 C24.02055423 205.35083011 24.02055423 205.35083011 33 218 C34.99571323 218.67939174 36.99594773 219.34561559 39 220 C43.65517241 223.31034483 43.65517241 223.31034483 45 226 C45.039992 227.99960012 45.04346799 230.00047242 45 232 C41.27124612 232.14560195 37.54322566 232.23417043 33.8125 232.3125 C32.22985352 232.3753418 32.22985352 232.3753418 30.61523438 232.43945312 C22.82021431 232.56240297 22.82021431 232.56240297 18.91796875 229.88671875 C16.8687926 226.80252084 15.65016309 224.01621286 14.5 220.5 C12.72510408 215.41110096 12.72510408 215.41110096 9.25 211.375 C6.13389621 208.08577933 6.44984986 205.47729981 6.2265625 201.0703125 C4.99680588 184.40499008 -1.79117419 164.49604614 -8.66015625 149.2734375 C-10.32622004 145.20299593 -9.92667427 143.27695818 -9 139 C-8.64127431 137.02165458 -8.28734761 135.04243469 -7.9375 133.0625 C-7.62630155 131.37475949 -7.31424786 129.68717539 -7 128 C-7.26554687 128.74765625 -7.53109375 129.4953125 -7.8046875 130.265625 C-8.15789062 131.25046875 -8.51109375 132.2353125 -8.875 133.25 C-9.22304687 134.22453125 -9.57109375 135.1990625 -9.9296875 136.203125 C-11 139 -11 139 -12.1953125 141.109375 C-14.02990358 145.41977345 -10.77934032 150.31262968 -9.1875 154.4375 C-1.53703704 174.61111111 -1.53703704 174.61111111 -3 179 C-3.36351562 178.52949219 -3.72703125 178.05898437 -4.1015625 177.57421875 C-7.36863868 173.52807056 -10.06582581 170.99716574 -15 169 C-13.9171875 169.99 -13.9171875 169.99 -12.8125 171 C-7.15948148 176.84683629 -4.67261481 181.04893936 -4.4375 189.4375 C-4.77158559 198.77333628 -7.33976106 205.33976106 -14 212 C-16.58808987 213.82178393 -19.25451354 215.43013988 -22 217 C-20.77023438 217.03738281 -19.54046875 217.07476562 -18.2734375 217.11328125 C-16.64059599 217.17897028 -15.00778482 217.24541659 -13.375 217.3125 C-12.16263672 217.34633789 -12.16263672 217.34633789 -10.92578125 217.38085938 C-5.93445001 217.60404898 -2.323642 218.25101774 2 221 C4.60691129 224.38898468 5 225.62734613 5 230 C-5.56 230 -16.12 230 -27 230 C-27.66 227.69 -28.32 225.38 -29 223 C-31.05639541 220.94360459 -32.36423812 220.145317 -35.1875 219.5 C-35.785625 219.335 -36.38375 219.17 -37 219 C-41.08506567 206.744803 -39.32041711 188.67707825 -34 177 C-33.72671875 176.38592285 -33.4534375 175.7718457 -33.171875 175.13916016 C-31.72678571 171.90276226 -30.23796021 168.69314755 -28.68359375 165.5078125 C-28.12800781 164.35023438 -27.57242188 163.19265625 -27 162 C-26.443125 160.86691406 -25.88625 159.73382813 -25.3125 158.56640625 C-23.7994761 154.45512404 -23.50305537 151.14799517 -23.5625 146.8125 C-23.56572266 146.07 -23.56894531 145.3275 -23.57226562 144.5625 C-23.716528 138.80195396 -25.03824013 134.02677413 -27.08984375 128.63671875 C-28.73259473 123.87767622 -28.95869321 119.74896009 -27.29296875 114.97265625 C-24.64754187 109.65207859 -20.81024485 105.25004678 -17.0625 100.6875 C-10.39630353 92.53483939 -3.86926506 84.25939923 -4.59765625 73.19140625 C-5.40361637 68.80166229 -7.56736317 65.64895525 -10 62 C-0.30595153 61.48978692 6.46488268 65.07565051 14 71 C16.19210232 73.23702245 18.06875237 75.5240415 20 78 C17.66175713 73.65754896 15.56752986 70.44011808 12 67 C12 66.34 12 65.68 12 65 C11.41089844 64.87625 10.82179688 64.7525 10.21484375 64.625 C8 64 8 64 4.5625 62 C-1.86956152 58.71784524 -10.23500675 57.76572726 -17.1875 59.9375 C-21.47597667 61.88680758 -24.97002228 65.00028158 -28.5078125 68.0625 C-34.60660975 72.80388469 -39.77383678 73.74975339 -47.37109375 73.62890625 C-54.33057128 72.42279658 -59.13416712 67.86583288 -64 63 C-63.82002338 57.40739331 -62.36142908 54.56841535 -58.6875 50.4375 C-57.87796875 49.49390625 -57.0684375 48.5503125 -56.234375 47.578125 C-55.49703125 46.72734375 -54.7596875 45.8765625 -54 45 C-51.49429428 41.91402558 -50.07219474 39.76526429 -49.6875 35.6875 C-49.7083649 33.08473412 -49.7083649 33.08473412 -51 32 C-51.99182264 24.34879675 -49.18236225 19.30831361 -45 13 C-42.5 10.125 -42.5 10.125 -40 8 C-39.071875 7.154375 -38.14375 6.30875 -37.1875 5.4375 C-26.69284282 -3.15889877 -12.65542959 -4.37638742 0 0 Z " fill="#030303" transform="translate(164,7)"/>
<path d="M0 0 C3.91399162 0.54778212 5.59792161 2.35738366 8.3125 5.125 C11.90979066 8.55831595 11.90979066 8.55831595 16.8125 9.0625 C17.864375 8.711875 18.91625 8.36125 20 8 C25.40086021 6.43200833 30.18059863 6.25876241 35.375 8.375 C38 10 38 10 40 12 C42.56695745 12.30352537 45.10462068 12.37834543 47.6875 12.4609375 C50 13 50 13 51.2890625 14.765625 C52.86825511 19.72880177 52.83567911 24.32864179 50.5 29 C47.66197093 32.40563488 44.72759832 35.70449086 41.70703125 38.94921875 C38.82963175 42.40604881 38.67407914 45.77924016 38.703125 50.1796875 C39.36534603 56.47078733 41.16251828 63.32503657 44 69 C44.87781255 81.55947184 42.35403071 90.28745226 37 101.375 C29.23325603 117.61375614 27.53529674 134.44357723 32 152 C33.134375 152.309375 34.26875 152.61875 35.4375 152.9375 C39 154 39 154 40 155 C40.04080783 156.99958364 40.04254356 159.00045254 40 161 C36.95066547 161.28767307 34.0383271 161.44649251 31 161 C29.3125 158.6875 29.3125 158.6875 28 156 C26.989375 155.54625 25.97875 155.0925 24.9375 154.625 C22 153 22 153 20.83984375 150.18359375 C19.47806826 144.69417872 19.61855888 139.05979023 19.625 133.4375 C19.62371094 132.2839502 19.62242188 131.13040039 19.62109375 129.94189453 C19.72730094 121.36687075 20.74113748 114.00167137 24 106 C23.18563132 107.76997474 22.3735706 109.54101152 21.5625 111.3125 C21.11003906 112.29863281 20.65757813 113.28476563 20.19140625 114.30078125 C18.49639723 118.14094923 17.87229478 120.99163095 17.8671875 125.15625 C17.86589844 126.17976563 17.86460938 127.20328125 17.86328125 128.2578125 C17.86714844 129.32773438 17.87101562 130.39765625 17.875 131.5 C17.87113281 132.53898438 17.86726563 133.57796875 17.86328125 134.6484375 C17.87180535 141.48476475 18.25935892 148.20432281 19 155 C20.423125 155.185625 20.423125 155.185625 21.875 155.375 C25 156 25 156 27 158 C27.125 161.125 27.125 161.125 27 164 C24.73020335 164.10794277 22.45894804 164.18556176 20.1875 164.25 C18.92292969 164.29640625 17.65835938 164.3428125 16.35546875 164.390625 C13 164 13 164 11.19921875 162.4296875 C9.66994656 159.33129238 8.59415646 156.18053739 7.625 152.875 C7.41657471 152.17342773 7.20814941 151.47185547 6.9934082 150.74902344 C6.55219624 149.25711059 6.11420213 147.76424286 5.67919922 146.27050781 C5.0144476 144.04829716 4.29703506 141.84974819 3.56640625 139.6484375 C-0.06898328 128.28262196 -0.55812429 117.88184604 0 106 C-0.99 110.95 -1.98 115.9 -3 121 C-3.99 120.0925 -4.98 119.185 -6 118.25 C-12.00181806 113.16412205 -17.04468306 110.49353801 -25.01953125 110.76171875 C-27.20787454 110.95782519 -27.20787454 110.95782519 -30 112 C-29.154375 112.00257813 -28.30875 112.00515625 -27.4375 112.0078125 C-20.71591741 112.23695736 -15.76266454 112.617807 -10.65625 117.2265625 C-10.1096875 117.81179687 -9.563125 118.39703125 -9 119 C-8.4740625 119.54398437 -7.948125 120.08796875 -7.40625 120.6484375 C-3.27832983 125.90006928 -3.0474223 131.78649073 -3.2421875 138.28515625 C-4.50415075 144.47137818 -8.13696172 148.17559075 -13 152 C-15.296875 153.26171875 -15.296875 153.26171875 -17 154 C-15.96359375 154.02578125 -14.9271875 154.0515625 -13.859375 154.078125 C-12.48954199 154.13441951 -11.11975195 154.19176655 -9.75 154.25 C-9.06808594 154.26417969 -8.38617188 154.27835938 -7.68359375 154.29296875 C-4.34543977 154.45501506 -2.27771414 154.80612409 0.484375 156.734375 C2.28564228 159.42699104 2.12712967 160.83486431 2 164 C-4.29879297 164.05082181 -10.5975328 164.08578472 -16.89648438 164.10986328 C-19.03810604 164.11990416 -21.17971405 164.13353954 -23.32128906 164.15087891 C-26.40433121 164.17521118 -29.48719165 164.18650242 -32.5703125 164.1953125 C-33.52366486 164.20563507 -34.47701721 164.21595764 -35.45925903 164.22659302 C-40.38457948 164.22741927 -44.38011328 163.9434458 -49 162 C-49 161.01 -49 160.02 -49 159 C-50.299375 159.12375 -51.59875 159.2475 -52.9375 159.375 C-60.0969912 159.33018315 -64.38581237 155.48604118 -69.390625 150.7265625 C-77.90288346 141.79150975 -82.89588033 132.00207614 -83.3125 119.625 C-82.85055733 100.99331245 -69.36545427 87.88573076 -56.63671875 75.74609375 C-54.28609102 73.2383835 -53.99706687 70.98240122 -53.4375 67.625 C-53.64069574 64.1099238 -53.64069574 64.1099238 -55.3984375 62.46875 C-60.87916008 58.62105904 -66.44022092 58.13264259 -73 58 C-70.76624476 55.27286679 -69.56252069 54.10789087 -66.046875 53.43359375 C-57.58365332 53.44362126 -52.49640537 54.7074889 -46.36328125 60.5625 C-43.11820568 63.98424158 -42.76233935 67.02041646 -42.63671875 71.70703125 C-43.65141756 78.1116356 -46.90959249 82.45665148 -51.1875 87.125 C-62.65211688 100.15080493 -68.39926419 112.16423939 -67.29882812 129.73291016 C-66.61485849 134.92191512 -64.09209766 138.89993913 -61 143 C-60.2575 144.051875 -59.515 145.10375 -58.75 146.1875 C-58.1725 146.785625 -57.595 147.38375 -57 148 C-56.34 148 -55.68 148 -55 148 C-55.19335938 147.443125 -55.38671875 146.88625 -55.5859375 146.3125 C-60.44857005 132.06161647 -62.57609409 118.51697938 -55.74609375 104.41015625 C-47.0409882 89.01611401 -34.47052934 81.51349633 -18.45703125 75.3515625 C-8.69644281 71.53555843 -3.73298212 67.46596424 1 58 C1.0972886 55.87681936 1.12977619 53.75040309 1.125 51.625 C1.12757812 50.48289063 1.13015625 49.34078125 1.1328125 48.1640625 C1.1186259 45.18631458 1.1186259 45.18631458 0.51147461 43.11254883 C-0.06781776 40.71989161 -0.21156333 38.49447164 -0.31640625 36.03515625 C-0.35846191 35.07593262 -0.40051758 34.11670898 -0.44384766 33.12841797 C-0.48300293 32.11666504 -0.5221582 31.10491211 -0.5625 30.0625 C-0.6042334 29.03012207 -0.6459668 27.99774414 -0.68896484 26.93408203 C-1.47549547 6.48749597 -1.47549547 6.48749597 0 0 Z " fill="#040404" transform="translate(93,76)"/>
<path d="M0 0 C0.33 0 0.66 0 1 0 C0.84015625 1.17433594 0.6803125 2.34867188 0.515625 3.55859375 C-0.23448388 10.37740266 -0.24224459 17.20943531 -0.25 24.0625 C-0.25200912 25.11173141 -0.25200912 25.11173141 -0.25405884 26.18215942 C-0.25014291 35.66990464 0.1312404 45.01071776 1.3125 54.4375 C1.43012695 55.38181885 1.54775391 56.3261377 1.66894531 57.29907227 C2.72525221 64.76008396 4.04711372 73.85155781 10 79 C11.98490333 79.19208742 13.97079114 79.38109906 15.9609375 79.5078125 C19.28419953 80.3099792 20.84543468 82.46312893 22.96875 85.015625 C24.24627594 87.47389462 24.07419268 89.2649879 24 92 C20.417094 92.14533755 16.83494583 92.23407931 13.25 92.3125 C12.23421875 92.35439453 11.2184375 92.39628906 10.171875 92.43945312 C2.66296704 92.5629549 2.66296704 92.5629549 -0.51171875 89.8671875 C-1.00285156 88.92101562 -1.49398437 87.97484375 -2 87 C-2.52722656 85.99582031 -3.05445313 84.99164063 -3.59765625 83.95703125 C-4.57767361 81.85326066 -5.55683445 79.74909087 -6.53515625 77.64453125 C-7.87194294 74.75381944 -7.87194294 74.75381944 -11 73 C-11.71504985 70.25190589 -12.26745093 67.60262344 -12.75 64.8125 C-14.43833198 55.87130268 -16.90597266 47.30608019 -19.71386719 38.65551758 C-20.00938477 37.7302124 -20.30490234 36.80490723 -20.609375 35.8515625 C-21.0110791 34.62687256 -21.0110791 34.62687256 -21.42089844 33.37744141 C-22.04989071 30.79517887 -22.21521607 28.64779312 -22 26 C-20.34765625 23.7109375 -20.34765625 23.7109375 -18.0625 21.375 C-12.27301081 15.26590179 -6.97077325 8.81504273 -1.80078125 2.17578125 C-1.20652344 1.45777344 -0.61226562 0.73976562 0 0 Z " fill="#070707" transform="translate(218,133)"/>
<path d="M0 0 C5.09400721 3.79928038 8.40311669 8.77695199 11.8125 14.09765625 C11.4825 14.75765625 11.1525 15.41765625 10.8125 16.09765625 C10.12027344 15.22753906 10.12027344 15.22753906 9.4140625 14.33984375 C3.9618528 7.81012226 -2.49725775 1.65699407 -11.1875 0.09765625 C-13.52050933 0.05877276 -15.85459801 0.05279275 -18.1875 0.09765625 C-17.2284375 1.24234375 -17.2284375 1.24234375 -16.25 2.41015625 C-13.07001839 6.55376865 -12.71529835 10.14768274 -12.7890625 15.22265625 C-14.05501925 24.35740297 -20.11709124 31.62712825 -25.93359375 38.41796875 C-31.74643514 45.32890322 -36.53317709 51.14538153 -36.48828125 60.46875 C-36.14789118 63.44384765 -35.27279825 65.8096286 -34.1875 68.59765625 C-30.04037387 80.39525693 -30.97808883 91.24582027 -36.33398438 102.40893555 C-36.97376911 103.69703333 -37.61979637 104.98205206 -38.27246094 106.26367188 C-39.64273639 109.0100724 -40.82287611 111.82660054 -42 114.66015625 C-42.37769531 115.54832031 -42.75539062 116.43648438 -43.14453125 117.3515625 C-45.86361392 124.51079516 -46.57551878 130.94682017 -46.8125 138.53515625 C-46.85117188 139.55287109 -46.88984375 140.57058594 -46.9296875 141.61914062 C-47.02330872 144.11180561 -47.10903993 146.60447575 -47.1875 149.09765625 C-47.5175 149.09765625 -47.8475 149.09765625 -48.1875 149.09765625 C-48.5175 143.15765625 -48.8475 137.21765625 -49.1875 131.09765625 C-49.5175 133.07765625 -49.8475 135.05765625 -50.1875 137.09765625 C-50.5175 137.09765625 -50.8475 137.09765625 -51.1875 137.09765625 C-52.09325248 123.96424536 -46.7583541 112.55289715 -41.27368164 100.93823242 C-40.89074951 100.12330322 -40.50781738 99.30837402 -40.11328125 98.46875 C-39.76692627 97.7461499 -39.42057129 97.0235498 -39.0637207 96.27905273 C-35.67968261 87.85431593 -35.98257168 77.42635071 -39.125 69.03515625 C-39.48464844 68.19855469 -39.84429687 67.36195313 -40.21484375 66.5 C-42.3428335 61.2441217 -42.86467143 55.70850525 -42.1875 50.09765625 C-39.94658762 44.89873953 -36.92740586 41.57368366 -32.7734375 37.7734375 C-29.77585202 34.60603806 -28.9186607 31.91603381 -29 27.59765625 C-29.00644531 26.84484375 -29.01289063 26.09203125 -29.01953125 25.31640625 C-29.18446437 23.13775482 -29.59149094 21.19560814 -30.1875 19.09765625 C-30.85136719 19.1440625 -31.51523438 19.19046875 -32.19921875 19.23828125 C-38.22407334 19.48455268 -40.52766768 19.05851372 -45.1875 15.09765625 C-48.48265038 14.16786188 -51.80274151 13.59715459 -55.1875 13.09765625 C-55.1875 12.10765625 -55.1875 11.11765625 -55.1875 10.09765625 C-53.269375 10.03578125 -53.269375 10.03578125 -51.3125 9.97265625 C-43.01010072 9.04727109 -36.45071226 3.56206988 -30.171875 -1.60546875 C-20.89456197 -7.66859459 -9.14974112 -4.95205404 0 0 Z " fill="#F1F1F1" transform="translate(173.1875,69.90234375)"/>
<path d="M0 0 C0.66 0.33 1.32 0.66 2 1 C1.51660156 1.83724609 1.51660156 1.83724609 1.0234375 2.69140625 C-1.77848343 9.01176987 -0.19746217 15.9223951 2 22.1875 C5.02269858 31.24480037 5.93172925 41.56935786 2 50.5 C1.36400127 51.6836643 0.70988433 52.85911447 0 54 C-0.33 54 -0.66 54 -1 54 C-0.99097656 53.06800781 -0.98195313 52.13601562 -0.97265625 51.17578125 C-1.18060647 42.2339217 -2.73568673 36.82881611 -7.3984375 29 C-10.07387203 23.98845435 -10.62395822 19.44450406 -9.6171875 13.88671875 C-7.87416975 8.20536344 -4.07270722 4.19544634 0 0 Z " fill="#EAEAEA" transform="translate(128,115)"/>
<path d="M0 0 C4.33166528 2.01512313 5.19472439 3.74980558 7 8.09375 C8.61776658 12.79538413 9.74952831 17.61069538 10.875 22.44921875 C12.06887764 26.21739505 13.60037246 28.87392272 16 32 C18.70879335 33.35439668 21.00933268 33.06501451 24 33 C24.45890625 32.05898438 24.9178125 31.11796875 25.390625 30.1484375 C26.01019772 28.89051714 26.63000177 27.63271069 27.25 26.375 C27.55035156 25.75753906 27.85070312 25.14007813 28.16015625 24.50390625 C29.66309412 21.46605311 31.18410488 18.73467237 33.125 15.9375 C35.1239362 12.80583329 35.94765585 10.23554867 36.75 6.625 C36.99234375 5.56539062 37.2346875 4.50578125 37.484375 3.4140625 C37.65453125 2.61742187 37.8246875 1.82078125 38 1 C38.33 1 38.66 1 39 1 C39 2.98 39 4.96 39 7 C39.66 7 40.32 7 41 7 C39.73359338 11.281959 38.12779142 14.6238882 35.625 18.3125 C33.35038808 21.77632811 31.37350765 25.12414482 29.75 28.9375 C26.9827791 35.3712886 26.9827791 35.3712886 25 37 C20.48171649 37.58300432 18.20608953 37.68527814 14.25 35.4375 C9.11399108 29.87349034 7.32425763 24.32752452 6 17.0625 C4.83828805 10.72148895 3.10139188 5.67942388 0 0 Z " fill="#B8B8B8" transform="translate(147,18)"/>
<path d="M0 0 C0.33 0.66 0.66 1.32 1 2 C0.38594109 3.67863341 -0.26862326 5.34244687 -0.9375 7 C-5.03027556 19.56058708 -4.29160083 35.07015464 -2 48 C-1.2575 48.0825 -0.515 48.165 0.25 48.25 C3.56331349 49.15363095 4.88115832 50.33182899 7 53 C7 53.99 7 54.98 7 56 C9.97 56 12.94 56 16 56 C16.33 54.68 16.66 53.36 17 52 C17 53.65 17 55.3 17 57 C13.37 57 9.74 57 6 57 C6 56.01 6 55.02 6 54 C5.34 54 4.68 54 4 54 C4 55.65 4 57.3 4 59 C3.67 59 3.34 59 3 59 C2.79375 57.88625 2.5875 56.7725 2.375 55.625 C1.38371699 51.73400805 1.38371699 51.73400805 -2.125 50.5625 C-3.548125 50.2840625 -3.548125 50.2840625 -5 50 C-8.1961258 34.95842936 -10.48118072 16.64699079 -2 3 C-1.34 2.01 -0.68 1.02 0 0 Z " fill="#AEAEAE" transform="translate(117,181)"/>
<path d="M0 0 C0.33 0 0.66 0 1 0 C0.31842752 10.08009828 0.31842752 10.08009828 -1.125 14.25 C-3.00653571 20.16339795 -0.68278596 24.89809743 1.8125 30.19140625 C3.3602869 33.85212593 4.56371651 37.58406903 5.75 41.375 C5.97268555 42.0774585 6.19537109 42.77991699 6.42480469 43.50366211 C7.3301767 46.44327853 8 48.90587891 8 52 C7.34 52 6.68 52 6 52 C5.67 53.32 5.34 54.64 5 56 C4.88140625 55.34128906 4.7628125 54.68257812 4.640625 54.00390625 C2.47412358 43.84512827 -0.75904914 33.89820936 -4.984375 24.41796875 C-7.32104918 18.85488676 -7.32104918 18.85488676 -6.328125 16.2109375 C-5.79445312 15.30214844 -5.79445312 15.30214844 -5.25 14.375 C-2.75225669 9.77845849 -1.36123248 5.03243524 0 0 Z " fill="#C9C9C9" transform="translate(157,132)"/>
<path d="M0 0 C0.66 0.33 1.32 0.66 2 1 C1.80664062 1.56847656 1.61328125 2.13695312 1.4140625 2.72265625 C1.15367187 3.49480469 0.89328125 4.26695312 0.625 5.0625 C0.36976563 5.81660156 0.11453125 6.57070312 -0.1484375 7.34765625 C-0.42945313 8.22292969 -0.71046875 9.09820312 -1 10 C-1.350625 11.0209375 -1.70125 12.041875 -2.0625 13.09375 C-3.47923298 18.1093651 -3.46327151 23.25881912 -3.625 28.4375 C-3.66367188 29.45521484 -3.70234375 30.47292969 -3.7421875 31.52148438 C-3.83580872 34.01414936 -3.92153993 36.5068195 -4 39 C-4.33 39 -4.66 39 -5 39 C-5.33 33.06 -5.66 27.12 -6 21 C-6.33 22.98 -6.66 24.96 -7 27 C-7.33 27 -7.66 27 -8 27 C-8.6121528 18.12378435 -6.99950343 8.49925515 -2 1 C-1.34 0.67 -0.68 0.34 0 0 Z " fill="#D2D2D2" transform="translate(130,180)"/>
<path d="M0 0 C0.33 0 0.66 0 1 0 C1.06058594 1.29035156 1.12117188 2.58070313 1.18359375 3.91015625 C1.26805881 5.62761255 1.35270377 7.34506002 1.4375 9.0625 C1.47681641 9.91005859 1.51613281 10.75761719 1.55664062 11.63085938 C1.80003389 16.48000209 2.22598042 21.20628212 3 26 C3.928125 26.103125 4.85625 26.20625 5.8125 26.3125 C9.02464205 27.00531495 10.11930017 27.3879169 12 30 C12 30.66 12 31.32 12 32 C10.515 32.495 10.515 32.495 9 33 C8.608125 32.54625 8.21625 32.0925 7.8125 31.625 C6.07381656 29.81169643 6.07381656 29.81169643 3.5 29.375 C0.60429546 27.7823625 0.32637861 27.12602609 -0.8125 24.125 C-3.08684174 16.11311433 -2.83859419 7.80613401 0 0 Z " fill="#E3E3E3" transform="translate(124,200)"/>
<path d="M0 0 C7.828125 4.40625 7.828125 4.40625 9.75 8.25 C10.08 6.27 10.41 4.29 10.75 2.25 C11.08 2.25 11.41 2.25 11.75 2.25 C11.75 5.22 11.75 8.19 11.75 11.25 C9.77 12.24 9.77 12.24 7.75 13.25 C7.234375 12.363125 6.71875 11.47625 6.1875 10.5625 C3.59435403 6.80199279 1.03272614 4.01724806 -3.25 2.25 C-7.91683959 1.55483003 -12.53540276 1.32192867 -17.25 1.25 C-14.46404519 -4.32190962 -4.58977082 -2.22085685 0 0 Z " fill="#D0D0D0" transform="translate(79.25,187.75)"/>
<path d="M0 0 C1 2 1 2 0.0390625 4.88671875 C-0.18499268 5.48484375 -0.40904785 6.08296875 -0.63989258 6.69921875 C-4.78725004 17.91678075 -4.92055803 29.14912783 -5 41 C-8.96781697 37.03218303 -7.4329711 29.66647494 -7.44482422 24.32348633 C-7.29592307 14.65719963 -5.38685342 8.08028013 0 0 Z " fill="#DADADA" transform="translate(117,181)"/>
<path d="M0 0 C2.01927511 0.60578253 4.01463373 1.29094062 6 2 C6.61488281 2.19851562 7.22976562 2.39703125 7.86328125 2.6015625 C15.06724039 5.46004729 18.80609466 11.82563936 23 18 C22.67 18.66 22.34 19.32 22 20 C21.53851563 19.41992188 21.07703125 18.83984375 20.6015625 18.2421875 C15.17126317 11.73870648 8.67792378 5.50846722 0 4 C-1.58211573 3.93451508 -3.16670081 3.91421619 -4.75 3.9375 C-5.94882813 3.95103516 -5.94882813 3.95103516 -7.171875 3.96484375 C-8.07679688 3.98224609 -8.07679688 3.98224609 -9 4 C-9 3.34 -9 2.68 -9 2 C-6.03 2 -3.06 2 0 2 C0 1.34 0 0.68 0 0 Z " fill="#D7D7D7" transform="translate(162,66)"/>
<path d="M0 0 C1.828125 0.50390625 1.828125 0.50390625 4 2 C5.1099824 4.68440481 5.97341072 7.16082703 6.75 9.9375 C6.97042969 10.66646484 7.19085938 11.39542969 7.41796875 12.14648438 C8.31409317 15.18273203 9 17.81959724 9 21 C8.34 21 7.68 21 7 21 C6.67 22.32 6.34 23.64 6 25 C5.88785156 24.35289062 5.77570313 23.70578125 5.66015625 23.0390625 C4.63056709 18.29929702 3.14955362 13.69751097 1.72851562 9.0625 C0.79174635 5.94903943 0 3.27060329 0 0 Z " fill="#DCDCDC" transform="translate(156,163)"/>
<path d="M0 0 C-1.62668231 3.6930085 -3.91312407 6.61629195 -6.4375 9.75 C-7.21996094 10.73484375 -8.00242188 11.7196875 -8.80859375 12.734375 C-9.53175781 13.48203125 -10.25492188 14.2296875 -11 15 C-11.99 15 -12.98 15 -14 15 C-15.66756036 16.30436727 -15.66756036 16.30436727 -17.1875 18 C-17.71730469 18.556875 -18.24710938 19.11375 -18.79296875 19.6875 C-19.19128906 20.120625 -19.58960938 20.55375 -20 21 C-20.66 20.67 -21.32 20.34 -22 20 C-20.88200014 18.66079162 -19.75538103 17.32877444 -18.625 16 C-17.68527344 14.88625 -17.68527344 14.88625 -16.7265625 13.75 C-15.87191406 12.88375 -15.87191406 12.88375 -15 12 C-14.34 12 -13.68 12 -13 12 C-12.7628125 11.42765625 -12.525625 10.8553125 -12.28125 10.265625 C-10.72406762 7.5120708 -8.87507203 5.83204366 -6.5 3.75 C-5.7059375 3.04359375 -4.911875 2.3371875 -4.09375 1.609375 C-2 0 -2 0 0 0 Z " fill="#DFDFDF" transform="translate(217,134)"/>
<path d="M0 0 C2.32323323 3.48484985 2.34217236 5.30752863 2.5625 9.4375 C2.71623927 13.76538195 2.71623927 13.76538195 3.66796875 17.9453125 C4.21428376 21.32603834 2.86503306 24.28645354 1.75 27.4375 C1.53214844 28.09298828 1.31429687 28.74847656 1.08984375 29.42382812 C-0.22266023 33.25004586 -1.78411861 36.61752224 -4 40 C-5.23971427 36.28085718 -4.5565981 35.25662217 -3.125 31.6875 C-0.15672118 24.24604576 0.13586857 17.5375186 0.0625 9.625 C0.05798828 8.69816406 0.05347656 7.77132812 0.04882812 6.81640625 C0.03711574 4.54420291 0.02071372 2.27213612 0 0 Z " fill="#ABABAB" transform="translate(216,68)"/>
<path d="M0 0 C0.33 0 0.66 0 1 0 C1 1.98 1 3.96 1 6 C1.66 6 2.32 6 3 6 C1.7020192 10.36534836 0.02170659 13.92104178 -2.4375 17.75 C-3.03433594 18.69359375 -3.63117188 19.6371875 -4.24609375 20.609375 C-6 23 -6 23 -9 25 C-8.66943425 21.4739653 -7.60108962 19.27998327 -5.625 16.4375 C-2.27992608 11.38595359 -1.20310281 5.86879421 0 0 Z " fill="#D6D6D6" transform="translate(185,19)"/>
<path d="M0 0 C0 3 0 3 -1.75 5.875 C-4.93588853 11.14309425 -6.33710843 17.11796333 -8 23 C-8.99 22.67 -9.98 22.34 -11 22 C-10.82307573 14.21533216 -6.51075485 6.78081291 -1.2734375 1.140625 C-0.85320312 0.76421875 -0.43296875 0.3878125 0 0 Z " fill="#C1C1C1" transform="translate(195,127)"/>
<path d="M0 0 C2.475 0.495 2.475 0.495 5 1 C4.88618103 3.93832645 4.75943449 6.8751065 4.625 9.8125 C4.5940625 10.64587891 4.563125 11.47925781 4.53125 12.33789062 C4.49257812 13.14033203 4.45390625 13.94277344 4.4140625 14.76953125 C4.36693115 15.87711792 4.36693115 15.87711792 4.31884766 17.00708008 C4 19 4 19 2 22 C1.93941406 20.91460937 1.87882813 19.82921875 1.81640625 18.7109375 C1.73193936 17.26561514 1.64729449 15.82030318 1.5625 14.375 C1.52318359 13.66214844 1.48386719 12.94929688 1.44335938 12.21484375 C1.19690319 8.08196318 0.76529947 4.07730976 0 0 Z " fill="#F9F9F9" transform="translate(216,65)"/>
<path d="M0 0 C1.16015625 -0.03867188 1.16015625 -0.03867188 2.34375 -0.078125 C4.5 0.25 4.5 0.25 7.5 3.25 C2.22 3.25 -3.06 3.25 -8.5 3.25 C-6.75711721 -0.23576557 -3.52529933 0.07050599 0 0 Z " fill="#ACACAC" transform="translate(70.5,185.75)"/>
<path d="M0 0 C0.33 0 0.66 0 1 0 C1 1.98 1 3.96 1 6 C1.66 6 2.32 6 3 6 C3 12.6 3 19.2 3 26 C2.67 26 2.34 26 2 26 C1.67 20.06 1.34 14.12 1 8 C0.67 9.98 0.34 11.96 0 14 C-0.33 14 -0.66 14 -1 14 C-1.18451025 4.58997722 -1.18451025 4.58997722 0 0 Z " fill="#8D8D8D" transform="translate(123,193)"/>
<path d="M0 0 C0.99 0.33 1.98 0.66 3 1 C1.91273811 5.7114682 1.11103846 9.1810022 -3 12 C-5.75 11.75 -5.75 11.75 -8 11 C-7.38640625 10.76539063 -6.7728125 10.53078125 -6.140625 10.2890625 C-3.4369579 8.6609418 -2.90946466 7.27366164 -1.75 4.375 C-1.41484375 3.55773438 -1.0796875 2.74046875 -0.734375 1.8984375 C-0.49203125 1.27195313 -0.2496875 0.64546875 0 0 Z " fill="#D4D4D4" transform="translate(175,42)"/>
<path d="M0 0 C0.66 0 1.32 0 2 0 C3.62356346 1.96937661 5.13559566 3.93345148 6.625 6 C7.25535156 6.85851562 7.25535156 6.85851562 7.8984375 7.734375 C8.93805801 9.15203933 9.96977591 10.57549262 11 12 C10.67 12.66 10.34 13.32 10 14 C9.45730469 13.38511719 8.91460937 12.77023438 8.35546875 12.13671875 C7.64003906 11.32847656 6.92460937 10.52023438 6.1875 9.6875 C5.47980469 8.88699219 4.77210938 8.08648437 4.04296875 7.26171875 C2.40662878 5.45016838 0.74727832 3.70318297 -1 2 C-0.67 1.34 -0.34 0.68 0 0 Z " fill="#B0B0B0" transform="translate(174,72)"/>
<path d="M0 0 C0 3 0 3 -1.5 4.6875 C-1.995 5.120625 -2.49 5.55375 -3 6 C-0.36 6.33 2.28 6.66 5 7 C5 7.33 5 7.66 5 8 C0.38 8 -4.24 8 -9 8 C-6.11111446 5.11111446 -3.15095802 2.5907877 0 0 Z " fill="#BBBBBB" transform="translate(84,223)"/>
<path d="M0 0 C2.76223278 2.76223278 2.57856291 5.20706617 3 9 C2.34 9 1.68 9 1 9 C0.67 10.32 0.34 11.64 0 13 C-1.29676812 8.38926889 -0.71109139 4.66159911 0 0 Z " fill="#D7D7D7" transform="translate(162,175)"/>
<path d="M0 0 C5.445 1.485 5.445 1.485 11 3 C11 3.66 11 4.32 11 5 C3.5340751 5.36717663 3.5340751 5.36717663 1 3.625 C0 2 0 2 0 0 Z " fill="#DCDCDC" transform="translate(161,50)"/>
<path d="M0 0 C2.15377564 2.62198774 3.40072174 4.64404172 4 8 C3.01 7.67 2.02 7.34 1 7 C0.67 7.66 0.34 8.32 0 9 C-0.66 6.69 -1.32 4.38 -2 2 C-1.34 2 -0.68 2 0 2 C0 1.34 0 0.68 0 0 Z " fill="#C1C1C1" transform="translate(155,156)"/>
<path d="M0 0 C0.33 1.32 0.66 2.64 1 4 C1.66 4 2.32 4 3 4 C3 5.65 3 7.3 3 9 C2.34 9 1.68 9 1 9 C-1.04169485 6.09451118 -2 4.59857954 -2 1 C-1.34 0.67 -0.68 0.34 0 0 Z " fill="#DFDFDF" transform="translate(152,149)"/>
<path d="M0 0 C0.33 0 0.66 0 1 0 C1 1.98 1 3.96 1 6 C1.66 6 2.32 6 3 6 C2.34 7.98 1.68 9.96 1 12 C0.01 11.67 -0.98 11.34 -2 11 C-1.34 7.37 -0.68 3.74 0 0 Z " fill="#C4C4C4" transform="translate(185,19)"/>
<path d="M0 0 C2.475 0.495 2.475 0.495 5 1 C4.67 2.98 4.34 4.96 4 7 C3.01 6.67 2.02 6.34 1 6 C0.67 4.02 0.34 2.04 0 0 Z " fill="#DCDCDC" transform="translate(216,65)"/>
<path d="M0 0 C0.33 0 0.66 0 1 0 C1.125 6.75 1.125 6.75 0 9 C-0.66 9 -1.32 9 -2 9 C-2.125 5.625 -2.125 5.625 -2 2 C-1.34 1.34 -0.68 0.68 0 0 Z " fill="#F5F5F5" transform="translate(126,190)"/>
<path d="M0 0 C1.32 0.66 2.64 1.32 4 2 C3.67 2.66 3.34 3.32 3 4 C-0.96 4 -4.92 4 -9 4 C-9 3.34 -9 2.68 -9 2 C-6.03 2 -3.06 2 0 2 C0 1.34 0 0.68 0 0 Z " fill="#C0C0C0" transform="translate(162,66)"/>
<path d="M0 0 C0.66 0.33 1.32 0.66 2 1 C0.515 2.485 0.515 2.485 -1 4 C-0.67 4.66 -0.34 5.32 0 6 C-2.31 6 -4.62 6 -7 6 C-4.74259377 3.66475218 -2.7194239 1.81294927 0 0 Z " fill="#CACACA" transform="translate(148,219)"/>
<path d="M0 0 C0.66 0 1.32 0 2 0 C2.19622241 4.21878192 1.80230168 7.17010894 0 11 C-0.33 11 -0.66 11 -1 11 C-1.125 3.375 -1.125 3.375 0 0 Z " fill="#D1D1D1" transform="translate(111,193)"/>
<path d="M0 0 C3.58050131 4.17255271 3.26656798 6.66864045 3 12 C0.50494038 9.50494038 0.64051624 8.32671112 0.375 4.875 C0.30023438 3.96492188 0.22546875 3.05484375 0.1484375 2.1171875 C0.09945312 1.41851563 0.05046875 0.71984375 0 0 Z " fill="#E4E4E4" transform="translate(153,30)"/>
<path d="M0 0 C0.33 0 0.66 0 1 0 C0.67 2.97 0.34 5.94 0 9 C-0.66 8.01 -1.32 7.02 -2 6 C-2.99 6 -3.98 6 -5 6 C-3.35830472 3.97945196 -1.69088222 1.97956942 0 0 Z " fill="#343434" transform="translate(218,133)"/>
<path d="M0 0 C0.75 1.75 0.75 1.75 1 4 C-0.9375 6.25 -0.9375 6.25 -3 8 C-2.25 2.25 -2.25 2.25 0 0 Z " fill="#E6E6E6" transform="translate(184,29)"/>
<path d="M0 0 C0.99 0.33 1.98 0.66 3 1 C3 2.98 3 4.96 3 7 C2.34 7 1.68 7 1 7 C0.67 4.69 0.34 2.38 0 0 Z " fill="#EFEFEF" transform="translate(159,171)"/>
<path d="M0 0 C0.99 0.33 1.98 0.66 3 1 C2.34 3.31 1.68 5.62 1 8 C0.01 7.34 -0.98 6.68 -2 6 C-1.34 4.02 -0.68 2.04 0 0 Z " fill="#AAAAAA" transform="translate(175,42)"/>
</svg>
